<?xml version="1.0" standalone="no"?>
<!DOCTYPE svg PUBLIC "-//W3C//DTD SVG 20010904//EN"
 "http://www.w3.org/TR/2001/REC-SVG-20010904/DTD/svg10.dtd">
<svg version="1.0" xmlns="http://www.w3.org/2000/svg"
 width="512.000000pt" height="512.000000pt" viewBox="0 0 512.000000 512.000000"
 preserveAspectRatio="xMidYMid meet">
<metadata>
Created by potrace 1.14, written by Peter Selinger 2001-2017
</metadata>
<g transform="translate(0.000000,512.000000) scale(0.100000,-0.100000)"
fill="#000000" stroke="none">
<path d="M2640 5001 c-101 -36 -168 -95 -209 -181 -22 -47 -25 -69 -25 -145 1
-97 11 -131 63 -202 33 -46 97 -93 152 -113 l35 -13 0 -126 -1 -126 -106 -30
c-58 -17 -144 -46 -190 -64 -135 -53 -358 -174 -439 -238 -8 -7 -44 -35 -80
-63 -85 -66 -242 -221 -292 -287 -37 -49 -44 -53 -82 -54 -22 0 -193 0 -379 0
l-338 0 -31 -27 c-52 -47 -40 -140 21 -164 14 -5 159 -9 323 -10 164 0 298 -1
298 -3 0 -1 -26 -53 -58 -116 -31 -63 -62 -127 -68 -144 -6 -16 -17 -46 -24
-65 -7 -19 -17 -39 -22 -45 -6 -6 -206 -10 -562 -10 -512 -1 -555 -2 -580 -18
-56 -37 -58 -120 -5 -160 l31 -22 521 -2 c287 0 525 -2 530 -2 7 -1 6 -10 -13
-111 -10 -53 -19 -133 -25 -215 -2 -22 -4 -43 -4 -47 -1 -5 -105 -8 -231 -8
-255 0 -277 -4 -300 -59 -19 -47 -6 -96 34 -120 31 -20 49 -21 268 -21 l234 0
2 -37 c2 -21 9 -81 17 -133 15 -97 17 -106 33 -175 l9 -40 -343 0 -344 0 -27
-28 c-22 -22 -28 -37 -28 -72 0 -51 22 -80 70 -93 17 -4 188 -8 382 -7 l352 1
22 -51 c132 -306 318 -562 569 -779 154 -133 430 -289 638 -360 240 -82 440
-114 692 -111 297 5 554 63 820 187 152 71 259 136 281 172 17 27 18 73 4 96
-3 4 30 36 72 70 75 62 76 62 107 48 74 -35 154 21 140 98 -3 15 -10 36 -15
47 -9 16 -5 25 18 51 16 17 44 50 62 73 31 41 34 42 75 37 56 -8 85 11 130 85
145 239 251 548 283 826 15 127 7 485 -12 536 -2 8 -6 30 -9 49 -5 52 -33 164
-62 255 -210 654 -741 1162 -1396 1336 l-88 24 0 125 0 125 56 24 c31 13 76
45 101 70 174 174 109 468 -124 559 -59 23 -869 26 -933 3z"/>
<path d="M60 1592 c-45 -22 -66 -64 -54 -110 25 -97 164 -98 187 -1 21 82 -58
149 -133 111z"/>
</g>
</svg>
